<svg width="86" height="86" viewBox="0 0 86 86" fill="none" xmlns="http://www.w3.org/2000/svg">
<g filter="url(#filter0_d_2_896)">
<rect x="5" y="6" width="66" height="66" rx="6" fill="white"/>
</g>
<g clip-path="url(#clip0_2_896)">
<path d="M31.3984 57.1073C23.0276 50.6753 23.0401 40.2564 31.3984 33.834C31.7657 33.5518 32.3347 33.5056 32.7689 33.7141L36.9465 35.7205C37.1668 35.8263 37.3317 35.9882 37.4124 36.1779C37.4931 36.3676 37.4845 36.5731 37.388 36.7584L35.2992 40.7709C35.21 40.9423 35.0506 41.0868 34.8452 41.1826C34.6398 41.2783 34.3994 41.3202 34.1604 41.3018L30.5632 41.0254C29.2064 43.9108 29.2347 47.0908 30.5632 49.9158L34.1604 49.6394C34.3995 49.6211 34.6399 49.6629 34.8453 49.7587C35.0507 49.8544 35.21 49.9989 35.2993 50.1703L37.3881 54.1829C37.4845 54.3682 37.4932 54.5737 37.4125 54.7634C37.3318 54.9531 37.1669 55.115 36.9466 55.2208L32.769 57.2272C32.5565 57.3292 32.3053 57.3729 32.0564 57.3511C31.8075 57.3293 31.5756 57.2434 31.3984 57.1073ZM41.0531 36.7283C41.8157 37.7211 41.8157 38.9573 41.0531 39.9501C40.7985 40.2815 40.2082 40.3442 39.8466 40.0779L39.4615 39.7943C39.2094 39.6087 39.1526 39.3178 39.3158 39.0807C39.4728 38.8521 39.5549 38.5976 39.5549 38.3392C39.5549 38.0807 39.4728 37.8262 39.3158 37.5977C39.1525 37.3605 39.2094 37.0696 39.4615 36.884L39.8466 36.6004C40.2082 36.3341 40.7985 36.3968 41.0531 36.7283ZM46.969 32.2123C50.8452 35.7584 50.8421 40.9227 46.969 44.466C46.6806 44.7298 46.1614 44.7506 45.8377 44.5122L45.464 44.237C45.1701 44.0205 45.1432 43.666 45.4041 43.4259C48.6066 40.4773 48.6039 36.1986 45.4041 33.2524C45.1432 33.0122 45.1701 32.6577 45.464 32.4413L45.8377 32.1661C46.1614 31.9277 46.6806 31.9484 46.969 32.2123ZM44.006 34.4379C46.3295 36.732 46.3332 39.9425 44.006 42.2403C43.723 42.5197 43.1876 42.5499 42.8551 42.3049L42.4801 42.0286C42.1965 41.8197 42.158 41.4791 42.3973 41.2396C44.1076 39.5279 44.1075 37.1503 42.3973 35.4386C42.158 35.1991 42.1965 34.8587 42.4801 34.6497L42.8551 34.3734C43.1876 34.1284 43.723 34.1586 44.006 34.4379Z" fill="#F4694C"/>
</g>
<defs>
<filter id="filter0_d_2_896" x="0" y="0" width="86" height="86" filterUnits="userSpaceOnUse" color-interpolation-filters="sRGB">
<feFlood flood-opacity="0" result="BackgroundImageFix"/>
<feColorMatrix in="SourceAlpha" type="matrix" values="0 0 0 0 0 0 0 0 0 0 0 0 0 0 0 0 0 0 127 0" result="hardAlpha"/>
<feOffset dx="5" dy="4"/>
<feGaussianBlur stdDeviation="5"/>
<feComposite in2="hardAlpha" operator="out"/>
<feColorMatrix type="matrix" values="0 0 0 0 0.9 0 0 0 0 0.9 0 0 0 0 0.9 0 0 0 0.25 0"/>
<feBlend mode="normal" in2="BackgroundImageFix" result="effect1_dropShadow_2_896"/>
<feBlend mode="normal" in="SourceGraphic" in2="effect1_dropShadow_2_896" result="shape"/>
</filter>
<clipPath id="clip0_2_896">
<rect width="33" height="25.3566" fill="white" transform="translate(21 32)"/>
</clipPath>
</defs>
</svg>
