<svg width="86" height="86" viewBox="0 0 86 86" fill="none" xmlns="http://www.w3.org/2000/svg">
<g filter="url(#filter0_d_2_903)">
<rect x="5" y="6" width="66" height="66" rx="6" fill="white"/>
</g>
<g clip-path="url(#clip0_2_903)">
<path d="M36.2282 54.3342C26.8633 40.7579 25.125 39.3645 25.125 34.375C25.125 27.5405 30.6655 22 37.5 22C44.3345 22 49.875 27.5405 49.875 34.375C49.875 39.3645 48.1367 40.7579 38.7718 54.3342C38.1572 55.222 36.8427 55.2219 36.2282 54.3342ZM37.5 39.5312C40.3477 39.5312 42.6562 37.2227 42.6562 34.375C42.6562 31.5273 40.3477 29.2188 37.5 29.2188C34.6523 29.2188 32.3438 31.5273 32.3438 34.375C32.3438 37.2227 34.6523 39.5312 37.5 39.5312Z" fill="#F4694C"/>
</g>
<defs>
<filter id="filter0_d_2_903" x="0" y="0" width="86" height="86" filterUnits="userSpaceOnUse" color-interpolation-filters="sRGB">
<feFlood flood-opacity="0" result="BackgroundImageFix"/>
<feColorMatrix in="SourceAlpha" type="matrix" values="0 0 0 0 0 0 0 0 0 0 0 0 0 0 0 0 0 0 127 0" result="hardAlpha"/>
<feOffset dx="5" dy="4"/>
<feGaussianBlur stdDeviation="5"/>
<feComposite in2="hardAlpha" operator="out"/>
<feColorMatrix type="matrix" values="0 0 0 0 0.9 0 0 0 0 0.9 0 0 0 0 0.9 0 0 0 0.25 0"/>
<feBlend mode="normal" in2="BackgroundImageFix" result="effect1_dropShadow_2_903"/>
<feBlend mode="normal" in="SourceGraphic" in2="effect1_dropShadow_2_903" result="shape"/>
</filter>
<clipPath id="clip0_2_903">
<rect width="33" height="33" fill="white" transform="translate(21 22)"/>
</clipPath>
</defs>
</svg>
