<svg width="86" height="86" viewBox="0 0 86 86" fill="none" xmlns="http://www.w3.org/2000/svg">
<g filter="url(#filter0_d_2_889)">
<rect x="5" y="6" width="66" height="66" rx="6" fill="white"/>
</g>
<g clip-path="url(#clip0_2_889)">
<path d="M30.1667 50.1304C28.7 50.1304 27.2333 49.1443 26.5 48.7217C22.8333 46.7496 21.7333 46.0452 21 45.6226V51.5391C21 52.317 21.821 52.9478 22.8333 52.9478H37.5C38.5123 52.9478 39.3333 52.317 39.3333 51.5391V45.6226C38.6 46.0452 37.5 46.7496 33.8333 48.7217C33.1 49.1443 31.6333 50.1304 30.1667 50.1304ZM37.5 41.6783H22.8333C21.821 41.6783 21 42.3091 21 43.0869V43.7913C22.4667 44.6365 22.2833 44.6365 27.6 47.5948C28.15 47.8765 29.25 48.7217 30.1667 48.7217C31.0833 48.7217 32.1833 47.8765 32.7333 47.7356C38.05 44.7774 37.8667 44.7774 39.3333 43.9322V43.0869C39.3333 42.3091 38.5123 41.6783 37.5 41.6783ZM52.1667 37.4522H33.8333C32.821 37.4522 32 38.083 32 38.8609V40.2696H37.5C39.4027 40.2696 40.9713 41.3886 41.1501 42.8149L41.1667 42.8052V48.7217H52.1667C53.179 48.7217 54 48.0909 54 47.313V38.8609C54 38.083 53.179 37.4522 52.1667 37.4522ZM50.3333 43.0869H46.6667V40.2696H50.3333V43.0869ZM30.1667 38.8609C30.1667 37.3073 31.8115 36.0435 33.8333 36.0435H46.6667V31.8174C46.6667 31.0395 45.8457 30.4087 44.8333 30.4087H26.5C25.4877 30.4087 24.6667 31.0395 24.6667 31.8174V40.2696H30.1667V38.8609Z" fill="#F4694C"/>
</g>
<defs>
<filter id="filter0_d_2_889" x="0" y="0" width="86" height="86" filterUnits="userSpaceOnUse" color-interpolation-filters="sRGB">
<feFlood flood-opacity="0" result="BackgroundImageFix"/>
<feColorMatrix in="SourceAlpha" type="matrix" values="0 0 0 0 0 0 0 0 0 0 0 0 0 0 0 0 0 0 127 0" result="hardAlpha"/>
<feOffset dx="5" dy="4"/>
<feGaussianBlur stdDeviation="5"/>
<feComposite in2="hardAlpha" operator="out"/>
<feColorMatrix type="matrix" values="0 0 0 0 0.9 0 0 0 0 0.9 0 0 0 0 0.9 0 0 0 0.25 0"/>
<feBlend mode="normal" in2="BackgroundImageFix" result="effect1_dropShadow_2_889"/>
<feBlend mode="normal" in="SourceGraphic" in2="effect1_dropShadow_2_889" result="shape"/>
</filter>
<clipPath id="clip0_2_889">
<rect width="33" height="25.3565" fill="white" transform="translate(21 29)"/>
</clipPath>
</defs>
</svg>
